<svg id="Camada_1" data-name="Camada 1" xmlns="http://www.w3.org/2000/svg" viewBox="0 0 490.28 391.49"><defs><style>.cls-1{fill:#4a494a;}.cls-2{fill:#fefefe;}</style></defs><path class="cls-1" d="M79.09,7.38c13.73,0,27.47,0,41.2,0a32,32,0,0,1,14.49,3.13,3.14,3.14,0,0,0,2.82.17C155.67,3.25,174.21,3.3,193,7.18a107.25,107.25,0,0,1,32.62,12.66c9.69,5.64,15.06,14,16.41,25.09q1,8.41,2.07,16.83c.07.55-.15,1.37.5,1.53s.83-.67,1.12-1.12A141.3,141.3,0,0,1,260.6,42.79c18.88-20.45,42.27-32.61,69.54-37.21,25.31-4.27,50.55-3.64,74.94,4.9,42.47,14.87,69.48,44.08,79,88.45,4.35,20.15,3.12,40.37-1,60.46a5.88,5.88,0,0,0,.74,4.86c4.38,6.74,5.22,14.23,4.29,22.06-2.8,23.41-13.25,43-29.82,59.49-1.46,1.46-1.72,2.06.26,3.33,17.82,11.5,26,28.33,26.63,49.14.22,7.32.05,14.65,0,22a3.74,3.74,0,0,0,1,2.93,31.08,31.08,0,0,1,9,22.07c.06,6.23.69,12.5-.33,18.69-1.6,9.69-6.68,17.26-15.26,22-17.32,9.5-35.38,11.47-54,4a4.22,4.22,0,0,0-3.3.16c-22.48,8-43.35,4.79-62.64-9.08a40.14,40.14,0,0,1-5.71-5.2c-1.23-1.31-1.64-1.16-2.49.35a30.7,30.7,0,0,1-21.73,15.66c-4.61.92-9.29.6-13.95.55-5.56,0-11.16.5-16.67-.7A30.93,30.93,0,0,1,277.37,375a48.08,48.08,0,0,1-2.71-5.6c-.72-1.95-1.26-1.79-2.54-.41a74.9,74.9,0,0,1-32.63,20.91c-21,6.68-41.93,6.25-62.48-2.2a3.08,3.08,0,0,0-3.18.27,31.28,31.28,0,0,1-16.65,4.48H110.72c-21,0-41.93,0-62.89,0A31.4,31.4,0,0,1,17.11,369.2a24.09,24.09,0,0,1-1-5.89c-.23-8.82-.73-17.67.27-26.44A29.1,29.1,0,0,1,26.67,318c1.41-1.24,1.56-1.95,0-3.24A30.71,30.71,0,0,1,15,290.15c-.05-7.48-.35-15,.23-22.46a3.28,3.28,0,0,0-1-2.44,31.3,31.3,0,0,1-6.8-19.92q0-21.6,0-43.2c0-16,10.05-28.43,25.68-31.73,1.45-.31,1.91-.79,1.9-2.23q-.06-25.47,0-50.94c0-1.67-.67-2.09-2.12-2.31C16,112.31,5.26,99.83,5.25,82.77q0-21.73,0-43.46c0-18.23,13.67-31.89,31.88-31.92Q58.1,7.35,79.09,7.38Zm-.73,10.81c-14,0-28-.06-42,0C24,18.28,14.63,27.32,14.47,39.69c-.2,15-.16,30,0,45a21.47,21.47,0,0,0,18,21.45,36.36,36.36,0,0,0,8.72.22c2.42-.13,3.19.41,3.18,3.05-.13,21.65-.06,43.29-.1,64.94,0,2.05.91,4.66-.42,6s-3.8.33-5.78.37A21.47,21.47,0,0,0,16.8,202.06c-.07,15,0,30,0,45a20.93,20.93,0,0,0,3.59,11.75c3.82,5.78,3.95,6.23,3.92,12.93s-.07,13.32,0,20,2.26,12.61,7.73,16c5,3.09,5.88,6.84,5.25,11.84a5.38,5.38,0,0,0,0,1.5c.21,1.49-.36,2.35-1.68,3.19a21,21,0,0,0-10.31,18.53c-.06,6,0,12,0,18,0,13.69,9.14,22.87,22.77,22.88H110.4c15.07,0,30.14-.08,45.21,0,6.47.06,12.13-1.71,16.79-6.26a1.69,1.69,0,0,1,2.37-.3c13.79,7.44,28.58,9.62,44,8.08,24-2.39,42.62-13.5,54.85-34.64.24-.42.49-1.08.83-1.15.75-.14.78.75,1,1.2,3.35,6.86,6.56,13.8,10,20.63,4.06,8.1,10.73,12.25,19.8,12.38,5.91.09,11.82.06,17.73,0,9.51-.06,16.34-4.44,20.44-13,2.4-5,4.62-10.12,6.93-15.18.23-.51.32-1.2,1-1.28.12,0,.37.85.53,1.32,2.1,6.18,5.25,11.8,10.19,16.06,16.78,14.46,35.84,17.8,56.54,10.28a13.05,13.05,0,0,1,10.72.19c14.85,6.19,29.48,4.37,43.58-2.74,8.17-4.13,12.25-11,12.2-20.15,0-4.41-.06-8.83-.17-13.24a20.87,20.87,0,0,0-8.43-16.77,3.67,3.67,0,0,1-1.58-3.33c.06-8.9,0-17.81,0-26.72a50.42,50.42,0,0,0-1.24-10.88c-4-18-15.74-29.12-32.44-35.66-1-.38-2.57-.35-2.67-1.35s1.42-1.43,2.24-2.09c19.62-15.92,33.22-35.44,36.9-61,1-6.63,1-13.2-3.37-18.54-2.66-3.21-2.58-5.71-1.71-9.57,3.9-17.23,5.08-34.69,2.4-52.28C469.5,71.59,450.42,45,418.46,28,391.25,13.5,361.91,11.3,332,16.12c-36.06,5.8-62.81,25.41-81.2,56.74a127.56,127.56,0,0,0-11.3,25.21c-.17.54-.14,1.54-.88,1.47-.57-.05-.4-1-.47-1.53-.23-1.9-.39-3.8-.63-5.7-1.94-15.15-4-30.3-5.82-45.47-.94-7.65-4.56-13.39-11.17-17.31a97.31,97.31,0,0,0-32.74-12.27C169.92,14,152.5,14.45,136,23a1.74,1.74,0,0,1-2.19-.3,22.09,22.09,0,0,0-14.21-4.51C105.83,18.23,92.09,18.19,78.36,18.19Z" transform="translate(-5.24 -3)"/><path class="cls-2" d="M78.36,18.19c13.73,0,27.47,0,41.21,0a22.09,22.09,0,0,1,14.21,4.51A1.74,1.74,0,0,0,136,23c16.53-8.52,33.95-8.93,51.81-5.71a97.31,97.31,0,0,1,32.74,12.27c6.61,3.92,10.23,9.66,11.17,17.31,1.85,15.17,3.88,30.32,5.82,45.47.24,1.9.4,3.8.63,5.7.07.55-.1,1.48.47,1.53.74.07.71-.93.88-1.47a127.56,127.56,0,0,1,11.3-25.21c18.39-31.33,45.14-50.94,81.2-56.74C361.91,11.3,391.25,13.5,418.46,28c32,17,51,43.6,56.53,79.63,2.68,17.59,1.5,35-2.4,52.28-.87,3.86-.95,6.36,1.71,9.57,4.41,5.34,4.33,11.91,3.37,18.54-3.68,25.59-17.28,45.11-36.9,61-.82.66-2.34,1.15-2.24,2.09s1.71,1,2.67,1.35c16.7,6.54,28.4,17.62,32.44,35.66A50.42,50.42,0,0,1,474.88,299c0,8.91.05,17.82,0,26.72a3.67,3.67,0,0,0,1.58,3.33,20.87,20.87,0,0,1,8.43,16.77c.11,4.41.14,8.83.17,13.24.05,9.2-4,16-12.2,20.15-14.1,7.11-28.73,8.93-43.58,2.74a13.05,13.05,0,0,0-10.72-.19C397.85,389.3,378.79,386,362,371.5c-4.94-4.26-8.09-9.88-10.19-16.06-.16-.47-.41-1.34-.53-1.32-.65.08-.74.77-1,1.28-2.31,5.06-4.53,10.17-6.93,15.18-4.1,8.55-10.93,12.93-20.44,13-5.91.05-11.82.08-17.73,0-9.07-.13-15.74-4.28-19.8-12.38-3.42-6.83-6.63-13.77-10-20.63-.22-.45-.25-1.34-1-1.2-.34.07-.59.73-.83,1.15-12.23,21.14-30.82,32.25-54.85,34.64-15.41,1.54-30.2-.64-44-8.08a1.69,1.69,0,0,0-2.37.3c-4.66,4.55-10.32,6.32-16.79,6.26-15.07-.12-30.14,0-45.21,0H48.05c-13.63,0-22.76-9.19-22.77-22.88,0-6-.05-12,0-18A21,21,0,0,1,35.6,324.19c1.32-.84,1.89-1.7,1.68-3.19a5.38,5.38,0,0,1,0-1.5c.63-5-.24-8.75-5.25-11.84-5.47-3.37-7.66-9.46-7.73-16s-.05-13.32,0-20-.1-7.15-3.92-12.93A20.93,20.93,0,0,1,16.78,247c0-15-.05-30,0-45A21.47,21.47,0,0,1,38,180.68c2,0,4.56.85,5.78-.37s.42-3.95.42-6c0-21.65,0-43.29.1-64.94,0-2.64-.76-3.18-3.18-3.05a36.36,36.36,0,0,1-8.72-.22,21.47,21.47,0,0,1-18-21.45c-.15-15-.19-30,0-45C14.63,27.32,24,18.28,36.4,18.21,50.38,18.13,64.37,18.19,78.36,18.19ZM383.68,154.63h65.43c1.36,0,2.49.14,2.87-1.82,2.71-14,4-28,1.8-42.17C448.28,75,427.8,51.7,394.06,40c-16.44-5.7-33.55-6.47-50.79-4.73-15.19,1.53-29.58,5.62-42.49,14-21.71,14-34.89,34.28-42.16,58.67-4.88,16.37-5.86,33.17-4.68,50.16.94,13.55,3.65,26.67,9.37,39.05,10.19,22.07,27.65,36.35,49.79,45.06,25.46,10,51.77,10.51,78.3,5.19,22.16-4.45,40-15.88,53.21-34.27A64.46,64.46,0,0,0,456.42,183c.22-1.75-.05-2.58-2.12-2.94-15.36-2.72-30.7-5.61-46-8.5-1-.2-1.5-.1-1.76,1-1.54,6.51-4.95,12.1-8.61,17.59a26.7,26.7,0,0,1-14.54,10.75c-8.23,2.68-16.71,3-25.18,2.29-15.66-1.23-27.93-8.1-35.35-22.44-3.79-7.34-5.64-15.23-6.82-23.34-.32-2.18.18-2.81,2.49-2.8C340.23,154.67,362,154.63,383.68,154.63ZM100.07,245.88c19.81,0,39.63,0,59.44.05,2,0,2.53-.57,2.51-2.53q-.12-19.85,0-39.7c0-2.18-.69-2.58-2.68-2.56-10.66.09-21.31,0-32,.08-1.74,0-2.24-.45-2.22-2.21.08-9.07,0-18.15,0-27.22,0-19.48-.1-39,.06-58.44.08-9,2.39-17.34,9.79-23.36,10.4-8.45,20.83-6.42,30.56-.56.83.5.88,1.33,1.06,2.15q3.47,15.8,7,31.59c.23,1,.13,2.12,1.88,1.91,13.53-1.59,27.08-3.07,40.61-4.63,3.36-.39,3.23-.45,2.8-3.73-1.48-11.28-2.88-22.58-4.31-33.87-1.41-11.12-2.84-22.25-4.19-33.38a3.9,3.9,0,0,0-2.25-3.23,77.48,77.48,0,0,0-47.58-9.76c-9.91,1.13-18.47,5.21-25.11,13a73.32,73.32,0,0,0-13.85,24.64c-.19.57-.13,1.31-.79,1.68,0-.64-.15-1.27-.15-1.91,0-10.91,0-21.81,0-32.72,0-2-.53-2.47-2.48-2.47q-40,.1-79.92,0c-2,0-2.55.51-2.53,2.51.08,13.4.1,26.8,0,40.21,0,2.16.68,2.57,2.68,2.54,8.4-.11,16.81,0,25.22-.08,1.63,0,2.08.43,2.08,2.07q-.06,56.57,0,113.13c0,1.81-.56,2.2-2.26,2.18-7.57-.09-15.15,0-22.72-.09-2,0-2.65.45-2.63,2.57q.15,19.73,0,39.46c0,2.13.42,2.79,2.7,2.78C60.61,245.84,80.34,245.88,100.07,245.88ZM58.72,315.79c0,7.9,0,15.81,0,23.72,0,1.5-.38,2.06-2,2-2.74-.12-5.49,0-8.24-.06-1.38-.05-1.88.36-1.86,1.81q.12,8.12,0,16.23c0,1.39.53,1.63,1.76,1.62q23.22,0,46.45,0c1.37,0,1.87-.33,1.84-1.79-.08-5.32-.09-10.65,0-16,0-1.61-.56-2-2-1.9-2.66.1-5.32,0-8,.05-1.4,0-2.07-.2-2.06-1.87.09-10.49,0-21,.1-31.47a21.44,21.44,0,0,1,3.57-11.78c4.1-6.18,11.86-9,19.83-7.22,6,1.36,9.76,5.93,10.52,13.85,1.18,12.36.23,24.78.5,37.17,0,1.23-.66,1.31-1.59,1.3-2.91,0-5.83,0-8.74,0-1.31,0-1.71.4-1.69,1.71.06,5.41,0,10.82,0,16.23,0,1.24.26,1.73,1.64,1.73q23.34-.06,46.7,0c1.24,0,1.76-.27,1.74-1.64q-.11-8.12,0-16.23c0-1.49-.54-1.84-1.89-1.79-2.24.09-4.49,0-6.74,0-3.84,0-3.37.43-3.38-3.26,0-13.82.12-27.64-.15-41.45-.15-7.54-2.67-14.32-8.46-19.6-13.53-12.32-40.61-11.31-50.86,5.28-.2.32-.35.89-.8.76s-.25-.7-.25-1.08c0-3.24-.06-6.49,0-9.73,0-1.25-.26-1.75-1.63-1.74q-17.87.08-35.72,0c-1.3,0-1.71.36-1.7,1.68.07,5.5.08,11,0,16.49,0,1.49.58,1.81,1.91,1.77,2.75-.08,5.5.1,8.24-.07,2.16-.13,3,.37,2.94,2.79C58.61,300.8,58.72,308.29,58.72,315.79ZM453.4,318.4h-.06c0-6.83.17-13.66,0-20.48-.27-8.53-3.16-16-10.31-21.2a39.77,39.77,0,0,0-20.31-7.56c-14.85-1.34-29,1.57-42.57,7.38a2.24,2.24,0,0,0-1.66,1.89c-1.1,6.71-2.28,13.42-3.47,20.13-.26,1.49.07,2.25,1.77,2.4q8.44.75,16.86,1.75c1.62.19,2.17-.38,2.5-1.89.66-3,1.63-5.92,2.32-8.91a3.48,3.48,0,0,1,2.53-2.74A35.16,35.16,0,0,1,417.46,288c4.72.65,7.58,3.32,8.51,8.14a75.11,75.11,0,0,1,1.32,9.88c.27,4.4.22,4.41-4.27,4.08-.59-.05-1.16-.14-1.74-.17-12.94-.88-25.6.25-37.7,5.31a19.72,19.72,0,0,0-12.18,14.19,33.35,33.35,0,0,0-.8,10.9c.58,6.43,2.45,12.33,8,16.26a33.77,33.77,0,0,0,27.24,5.81c8.54-1.73,14.4-7.24,19.48-13.85.64-.83.92-2,2-2.46.22,1,.43,1.94.66,2.91,1.66,7,5.69,11.79,12.86,13.42,7.43,1.7,14.53.39,21.36-2.82a2.15,2.15,0,0,0,1.31-2.36c-.07-3.41-.12-6.83,0-10.24,0-1.59-.27-1.91-1.95-1.56-5.33,1.09-8.07-1.3-8.07-6.76Q453.4,328.52,453.4,318.4ZM211.16,268.68a51.34,51.34,0,0,0-8.23.5c-13.46,1.59-24.34,7.41-31.7,19.15-6.92,11-9,23.07-7.59,35.87,1.78,16,9.73,27.7,24.45,34.45,9.65,4.43,19.9,5.33,30.29,3.9,18.34-2.53,32.34-11.41,38.79-29.35,5.16-14.36,3.88-28.67-3.42-42.22-5.73-10.65-14.39-17.69-26.28-20.54A65.23,65.23,0,0,0,211.16,268.68Zm73.13,2c-7,0-14,.08-21-.05-1.94,0-2.36.56-2.29,2.37.15,3.49,0,7,.05,10.48,0,2.15-.7,5,.38,6.27,1.27,1.49,4.24.61,6.41.43,2.36-.19,3.33.83,4.26,2.78,10.54,22.1,21.18,44.15,31.74,66.25a2.76,2.76,0,0,0,3,1.92c4.74-.11,9.49-.13,14.23,0a3.19,3.19,0,0,0,3.53-2.23c9.39-20.8,19.07-41.47,28.17-62.4,2.16-5,4.63-7.37,10-6.25.16,0,.34,0,.5,0,1.49.23,1.78-.51,1.77-1.86-.07-5.32-.08-10.65,0-16,0-1.47-.49-1.79-1.86-1.78-12.56.05-25.13.07-37.69,0-1.79,0-2,.68-2,2.17.08,3.91,0,7.82,0,11.73,0,1.81-.74,4.07.34,5.32s3.29.34,5,.38c1.26,0,1.78.11,1.22,1.66-4.12,11.47-8.14,23-12.21,34.47-.17.5-.2,1.25-.94,1.32-.9.08-1-.75-1.27-1.31-1.38-2.93-2.73-5.87-4.1-8.81-3.88-8.35-7.73-16.72-11.69-25-.81-1.71-1-2.54,1.35-2.29,1.32.15,2.67-.07,4,0,1.72.16,2.3-.43,2.26-2.21q-.17-7.6,0-15.23c.05-1.77-.5-2.23-2.23-2.2C298.27,270.73,291.28,270.68,284.29,270.68ZM146.76,146.43c0,10.49.08,21-.06,31.46,0,2.35.67,2.9,2.9,2.85,5.24-.11,10.56-.45,15.71.26,11.07,1.54,18.27,10.72,18.32,22.65.05,13.4,0,26.8,0,40.2a31.78,31.78,0,0,1-.66,7.68c-.36,1.49,0,1.51,1.21,1.07a73.23,73.23,0,0,1,19.7-4.09c14.32-1.07,28.24.32,41.39,6.53a2.3,2.3,0,0,0,2.85-.3,20.86,20.86,0,0,1,13.42-4.56c5.58,0,11.15,0,16.73,0a15.38,15.38,0,0,0,1.65-.17c-.1-.67-.74-.82-1.17-1.13a112.57,112.57,0,0,1-18.25-16.22c-18-20.27-25.76-44.59-27.93-71.1a187.78,187.78,0,0,1-.42-21c.05-1.86-.35-2-1.81-1a22.58,22.58,0,0,1-10.14,3.19c-14.2,1.58-28.41,3-42.59,4.71-11.78,1.41-21.85-5.41-24.51-17-1.56-6.79-3-13.6-4.51-20.39-.11-.48-.15-1-.73-1.15a3,3,0,0,0-.44,1.1,28.41,28.41,0,0,0-.69,6.18Q146.78,131.32,146.76,146.43Z" transform="translate(-5.24 -3)"/><path class="cls-1" d="M383.68,154.63c-21.73,0-43.45,0-65.18-.06-2.31,0-2.81.62-2.49,2.8,1.18,8.11,3,16,6.82,23.34,7.42,14.34,19.69,21.21,35.35,22.44,8.47.67,16.95.39,25.18-2.29a26.7,26.7,0,0,0,14.54-10.75c3.66-5.49,7.07-11.08,8.61-17.59.26-1.08.72-1.18,1.76-1,15.33,2.89,30.67,5.78,46,8.5,2.07.36,2.34,1.19,2.12,2.94a64.46,64.46,0,0,1-11.81,30.09c-13.23,18.39-31.05,29.82-53.21,34.27-26.53,5.32-52.84,4.83-78.3-5.19-22.14-8.71-39.6-23-49.79-45.06-5.72-12.38-8.43-25.5-9.37-39.05-1.18-17-.2-33.79,4.68-50.16,7.27-24.39,20.45-44.67,42.16-58.67,12.91-8.33,27.3-12.42,42.49-14,17.24-1.74,34.35-1,50.79,4.73,33.74,11.71,54.22,35,59.72,70.66,2.17,14.12.91,28.2-1.8,42.17-.38,2-1.51,1.82-2.87,1.82Zm-28.87-34.81c12.06,0,24.13-.06,36.19.06,2.1,0,2.7-.66,2.79-2.6a46.17,46.17,0,0,0-5.55-24.22,28.21,28.21,0,0,0-19.6-14.85A49.49,49.49,0,0,0,356.27,77c-11.74.31-21.75,4.23-29,14-5.91,8-9.1,17.08-10.8,26.79-.31,1.72.23,2.08,1.86,2.07C330.52,119.79,342.66,119.82,354.81,119.82Z" transform="translate(-5.24 -3)"/><path class="cls-1" d="M100.07,245.88c-19.73,0-39.46,0-59.19.06-2.28,0-2.71-.65-2.7-2.78q.15-19.72,0-39.46c0-2.12.59-2.6,2.63-2.57,7.57.13,15.15,0,22.72.09,1.7,0,2.26-.37,2.26-2.18q-.09-56.56,0-113.13c0-1.64-.45-2.09-2.08-2.07-8.41.08-16.82,0-25.22.08-2,0-2.7-.38-2.68-2.54.11-13.41.09-26.81,0-40.21,0-2,.58-2.52,2.53-2.51q40,.08,79.92,0c1.95,0,2.5.5,2.48,2.47-.09,10.91,0,21.81,0,32.72,0,.64.1,1.27.15,1.91.66-.37.6-1.11.79-1.68a73.32,73.32,0,0,1,13.85-24.64c6.64-7.74,15.2-11.82,25.11-13a77.48,77.48,0,0,1,47.58,9.76,3.9,3.9,0,0,1,2.25,3.23c1.35,11.13,2.78,22.26,4.19,33.38,1.43,11.29,2.83,22.59,4.31,33.87.43,3.28.56,3.34-2.8,3.73-13.53,1.56-27.08,3-40.61,4.63-1.75.21-1.65-.9-1.88-1.91q-3.49-15.8-7-31.59c-.18-.82-.23-1.65-1.06-2.15-9.73-5.86-20.16-7.89-30.56.56-7.4,6-9.71,14.34-9.79,23.36-.16,19.48-.06,39-.06,58.44,0,9.07,0,18.15,0,27.22,0,1.76.48,2.22,2.22,2.21,10.66-.08,21.31,0,32-.08,2,0,2.7.38,2.68,2.56q-.15,19.85,0,39.7c0,2-.52,2.53-2.51,2.53C139.7,245.86,119.88,245.88,100.07,245.88Z" transform="translate(-5.24 -3)"/><path class="cls-1" d="M58.72,315.79c0-7.5-.11-15,.07-22.48.06-2.42-.78-2.92-2.94-2.79-2.74.17-5.49,0-8.24.07-1.33,0-1.93-.28-1.91-1.77.08-5.5.07-11,0-16.49,0-1.32.4-1.68,1.7-1.68q17.87.08,35.72,0c1.37,0,1.66.49,1.63,1.74-.07,3.24,0,6.49,0,9.73,0,.38-.24.95.25,1.08s.6-.44.8-.76c10.25-16.59,37.33-17.6,50.86-5.28,5.79,5.28,8.31,12.06,8.46,19.6.27,13.81.11,27.63.15,41.45,0,3.69-.46,3.23,3.38,3.26,2.25,0,4.5.07,6.74,0,1.35-.05,1.92.3,1.89,1.79q-.11,8.11,0,16.23c0,1.37-.5,1.65-1.74,1.64q-23.35,0-46.7,0c-1.38,0-1.66-.49-1.64-1.73,0-5.41.06-10.82,0-16.23,0-1.31.38-1.74,1.69-1.71,2.91.08,5.83,0,8.74,0,.93,0,1.62-.07,1.59-1.3-.27-12.39.68-24.81-.5-37.17-.76-7.92-4.5-12.49-10.52-13.85-8-1.78-15.73,1-19.83,7.22a21.44,21.44,0,0,0-3.57,11.78c-.12,10.49,0,21-.1,31.47,0,1.67.66,1.91,2.06,1.87,2.67-.08,5.33.05,8-.05,1.46-.06,2.05.29,2,1.9-.1,5.33-.09,10.66,0,16,0,1.46-.47,1.79-1.84,1.79q-23.23-.06-46.45,0c-1.23,0-1.78-.23-1.76-1.62q.12-8.12,0-16.23c0-1.45.48-1.86,1.86-1.81,2.75.09,5.5-.06,8.24.06,1.57.06,2-.5,2-2C58.69,331.6,58.72,323.69,58.72,315.79Z" transform="translate(-5.24 -3)"/><path class="cls-1" d="M453.4,318.4q0,10.11,0,20.23c0,5.46,2.74,7.85,8.07,6.76,1.68-.35,2,0,1.95,1.56-.08,3.41,0,6.83,0,10.24a2.15,2.15,0,0,1-1.31,2.36c-6.83,3.21-13.93,4.52-21.36,2.82-7.17-1.63-11.2-6.44-12.86-13.42-.23-1-.44-1.94-.66-2.91-1,.5-1.33,1.63-2,2.46-5.08,6.61-10.94,12.12-19.48,13.85a33.77,33.77,0,0,1-27.24-5.81c-5.54-3.93-7.41-9.83-8-16.26a33.35,33.35,0,0,1,.8-10.9,19.72,19.72,0,0,1,12.18-14.19c12.1-5.06,24.76-6.19,37.7-5.31.58,0,1.15.12,1.74.17,4.49.33,4.54.32,4.27-4.08a75.11,75.11,0,0,0-1.32-9.88c-.93-4.82-3.79-7.49-8.51-8.14A35.16,35.16,0,0,0,401,289.17a3.48,3.48,0,0,0-2.53,2.74c-.69,3-1.66,5.91-2.32,8.91-.33,1.51-.88,2.08-2.5,1.89q-8.42-1-16.86-1.75c-1.7-.15-2-.91-1.77-2.4,1.19-6.71,2.37-13.42,3.47-20.13a2.24,2.24,0,0,1,1.66-1.89c13.61-5.81,27.72-8.72,42.57-7.38A39.77,39.77,0,0,1,443,276.72c7.15,5.24,10,12.67,10.31,21.2.22,6.82,0,13.65,0,20.48Zm-55.95,15.36c0,7.7,4.24,11.47,11.93,10.59,9.22-1.06,15.67-7,17.35-16.64.83-4.73,2-4.64-3.76-5.1-.5,0-1-.21-1.47-.26-5.66-.51-11.3-.9-16.78,1.12C399.43,325.41,397.47,328.19,397.45,333.76Z" transform="translate(-5.24 -3)"/><path class="cls-1" d="M211.16,268.68a65.23,65.23,0,0,1,16.31,1.76c11.89,2.85,20.55,9.89,26.28,20.54,7.3,13.55,8.58,27.86,3.42,42.22-6.45,17.94-20.45,26.82-38.79,29.35-10.39,1.43-20.64.53-30.29-3.9-14.72-6.75-22.67-18.44-24.45-34.45-1.42-12.8.67-24.83,7.59-35.87,7.36-11.74,18.24-17.56,31.7-19.15A51.34,51.34,0,0,1,211.16,268.68Zm21.93,45.92a32.23,32.23,0,0,0-1.08-9.94,20.8,20.8,0,0,0-19.87-16c-10.18-.2-17.49,5.06-20.44,14.9a42,42,0,0,0-.73,20.72c1.13,5.48,3.22,10.55,7.5,14.34,9,7.94,24.25,5,30.58-5.88C232.26,327.3,233.28,321.3,233.09,314.6Z" transform="translate(-5.24 -3)"/><path class="cls-1" d="M284.29,270.68c7,0,14,.05,21,0,1.73,0,2.28.43,2.23,2.2q-.17,7.62,0,15.23c0,1.78-.54,2.37-2.26,2.21-1.32-.12-2.67.1-4,0-2.33-.25-2.16.58-1.35,2.29,4,8.32,7.81,16.69,11.69,25,1.37,2.94,2.72,5.88,4.1,8.81.27.56.37,1.39,1.27,1.31.74-.07.77-.82.94-1.32,4.07-11.49,8.09-23,12.21-34.47.56-1.55,0-1.62-1.22-1.66-1.72,0-4,.81-5-.38s-.31-3.51-.34-5.32c0-3.91,0-7.82,0-11.73,0-1.49.19-2.18,2-2.17,12.56.09,25.13.07,37.69,0,1.37,0,1.88.31,1.86,1.78-.09,5.32-.08,10.65,0,16,0,1.35-.28,2.09-1.77,1.86-.16,0-.34,0-.5,0-5.35-1.12-7.82,1.28-10,6.25-9.1,20.93-18.78,41.6-28.17,62.4a3.19,3.19,0,0,1-3.53,2.23c-4.74-.14-9.49-.12-14.23,0a2.76,2.76,0,0,1-3-1.92c-10.56-22.1-21.2-44.15-31.74-66.25-.93-1.95-1.9-3-4.26-2.78-2.17.18-5.14,1.06-6.41-.43-1.08-1.27-.36-4.12-.38-6.27,0-3.49.1-7-.05-10.48-.07-1.81.35-2.41,2.29-2.37C270.31,270.76,277.3,270.68,284.29,270.68Z" transform="translate(-5.24 -3)"/><path class="cls-1" d="M146.76,146.43q0-15.1,0-30.2a28.41,28.41,0,0,1,.69-6.18,3,3,0,0,1,.44-1.1c.58.1.62.67.73,1.15,1.5,6.79,2.95,13.6,4.51,20.39,2.66,11.59,12.73,18.41,24.51,17,14.18-1.7,28.39-3.13,42.59-4.71a22.58,22.58,0,0,0,10.14-3.19c1.46-1,1.86-.85,1.81,1a187.78,187.78,0,0,0,.42,21c2.17,26.51,9.91,50.83,27.93,71.1a112.57,112.57,0,0,0,18.25,16.22c.43.31,1.07.46,1.17,1.13a15.38,15.38,0,0,1-1.65.17c-5.58,0-11.15,0-16.73,0a20.86,20.86,0,0,0-13.42,4.56,2.3,2.3,0,0,1-2.85.3c-13.15-6.21-27.07-7.6-41.39-6.53a73.23,73.23,0,0,0-19.7,4.09c-1.21.44-1.57.42-1.21-1.07a31.78,31.78,0,0,0,.66-7.68c0-13.4,0-26.8,0-40.2,0-11.93-7.25-21.11-18.32-22.65-5.15-.71-10.47-.37-15.71-.26-2.23,0-2.93-.5-2.9-2.85C146.84,167.41,146.76,156.92,146.76,146.43Zm47,71V235.7c0,3.36,0,3.29,3.22,2.81,14.17-2.08,28.26-1.7,42,2.62,4.7,1.48,8.95,2.56,13.36-.29a2.73,2.73,0,0,1,1-.26c1.76-.28,1.91-.8.65-2.2-16.18-18-25.07-39.34-28.91-63A163.08,163.08,0,0,1,223,153.53c0-1.13.22-2.32-1.78-2.08-11.8,1.4-23.63,2.52-35.41,4.06-9.57,1.26-18.92,1.83-27.51-3.71-1.33-.86-1.09.21-1.09.9,0,4.07,0,8.15,0,12.23,0,4.77,0,4.77,4.72,4.84,18.46.29,31.84,13.79,31.91,32.23C193.82,207.16,193.8,212.32,193.8,217.48Z" transform="translate(-5.24 -3)"/><path class="cls-2" d="M354.81,119.82c-12.15,0-24.29,0-36.44,0-1.63,0-2.17-.35-1.86-2.07,1.7-9.71,4.89-18.78,10.8-26.79,7.21-9.77,17.22-13.69,29-14a49.49,49.49,0,0,1,12.37,1.22,28.21,28.21,0,0,1,19.6,14.85,46.17,46.17,0,0,1,5.55,24.22c-.09,1.94-.69,2.62-2.79,2.6C378.94,119.76,366.87,119.82,354.81,119.82Z" transform="translate(-5.24 -3)"/><path class="cls-2" d="M397.45,333.76c0-5.57,2-8.35,7.27-10.29,5.48-2,11.12-1.63,16.78-1.12.49,0,1,.22,1.47.26,5.8.46,4.59.37,3.76,5.1-1.68,9.61-8.13,15.58-17.35,16.64C401.69,345.23,397.44,341.46,397.45,333.76Z" transform="translate(-5.24 -3)"/><path class="cls-2" d="M233.09,314.6c.19,6.7-.83,12.7-4,18.18-6.33,10.84-21.61,13.82-30.58,5.88-4.28-3.79-6.37-8.86-7.5-14.34a42,42,0,0,1,.73-20.72c3-9.84,10.26-15.1,20.44-14.9a20.8,20.8,0,0,1,19.87,16A32.23,32.23,0,0,1,233.09,314.6Z" transform="translate(-5.24 -3)"/></svg>