<?xml version="1.0" encoding="utf-8"?>
<!-- Generator: Adobe Illustrator 24.1.3, SVG Export Plug-In . SVG Version: 6.00 Build 0)  -->
<svg version="1.1" id="Camada_1" xmlns="http://www.w3.org/2000/svg" xmlns:xlink="http://www.w3.org/1999/xlink" x="0px" y="0px"
	 viewBox="0 0 64 64" style="enable-background:new 0 0 64 64;" xml:space="preserve">
<style type="text/css">
	.st0{clip-path:url(#SVGID_2_);}
	.st1{fill:#409B70;}
	.st2{fill:#322153;stroke:#322153;}
</style>
<g>
	<defs>
		<rect id="SVGID_1_" width="64" height="64"/>
	</defs>
	<clipPath id="SVGID_2_">
		<use xlink:href="#SVGID_1_"  style="overflow:visible;"/>
	</clipPath>
	<g class="st0">
		<path class="st1" d="M46,26H18c-1.1,0-2-1-2-2.3V7.3C16,6,16.9,5,18,5h28c1.1,0,2,1,2,2.3v16.3C48,25,47.1,26,46,26z"/>
		<path class="st2" d="M16.5,0.5h31c2.6,0,4.7,2.1,4.7,4.7v21.4c0,1.6-0.4,3.2-1.1,4.6l0,0c-0.6,1.3-1,2.7-1,4.1v23.5
			c0,2.6-2.1,4.7-4.7,4.7H18.6c-2.6,0-4.7-2.1-4.7-4.7V35.3c0-1.4-0.3-2.9-1-4.1l0,0c-0.7-1.4-1.1-3-1.1-4.6V5.2
			C11.9,2.6,13.9,0.5,16.5,0.5z M50.1,30.7L50.1,30.7c0.6-1.3,1-2.7,1-4.1V5.2c0-2-1.6-3.6-3.6-3.6h-31c-2,0-3.6,1.6-3.6,3.6v21.4
			c0,1.4,0.3,2.9,1,4.1l0,0c0.7,1.4,1.1,3,1.1,4.6v23.5c0,2,1.6,3.6,3.6,3.6h26.8c2,0,3.6-1.6,3.6-3.6V35.3
			C49,33.7,49.4,32.2,50.1,30.7z"/>
		<path class="st2" d="M19.1,57.8v0.5h0.5h4.1h0.5l0-0.5l0-2.1l0-0.5h-0.5h-4.1h-0.5v0.5V57.8z M19.6,54.2h4.1
			c0.9,0,1.6,0.7,1.6,1.6v2.1c0,0.9-0.7,1.6-1.6,1.6h-4.1c-0.9,0-1.6-0.7-1.6-1.6v-2.1C18,54.9,18.8,54.2,19.6,54.2z"/>
		<path class="st2" d="M19.1,49.5V50h0.5h4.1h0.5l0-0.5l0-2.1l0-0.5h-0.5h-4.1h-0.5v0.5V49.5z M19.6,45.9h4.1c0.9,0,1.6,0.7,1.6,1.6
			v2.1c0,0.9-0.7,1.6-1.6,1.6h-4.1c-0.9,0-1.6-0.7-1.6-1.6v-2.1C18,46.6,18.8,45.9,19.6,45.9z"/>
		<path class="st2" d="M19.1,41.3v0.5h0.5h4.1h0.5l0-0.5l0-2.1l0-0.5h-0.5h-4.1h-0.5v0.5V41.3z M19.6,37.7h4.1
			c0.9,0,1.6,0.7,1.6,1.6v2.1c0,0.9-0.7,1.6-1.6,1.6h-4.1c-0.9,0-1.6-0.7-1.6-1.6v-2.1C18,38.4,18.8,37.7,19.6,37.7z"/>
		<path class="st2" d="M29.4,57.8v0.5h0.5h4.1h0.5l0-0.5l0-2.1l0-0.5h-0.5h-4.1h-0.5v0.5V57.8z M29.9,54.2h4.1
			c0.9,0,1.6,0.7,1.6,1.6v2.1c0,0.9-0.7,1.6-1.6,1.6h-4.1c-0.9,0-1.6-0.7-1.6-1.6v-2.1C28.4,54.9,29.1,54.2,29.9,54.2z"/>
		<path class="st2" d="M29.4,49.5V50h0.5h4.1h0.5l0-0.5l0-2.1l0-0.5h-0.5h-4.1h-0.5v0.5V49.5z M29.9,45.9h4.1c0.9,0,1.6,0.7,1.6,1.6
			v2.1c0,0.9-0.7,1.6-1.6,1.6h-4.1c-0.9,0-1.6-0.7-1.6-1.6v-2.1C28.4,46.6,29.1,45.9,29.9,45.9z"/>
		<path class="st2" d="M29.4,41.3v0.5h0.5h4.1h0.5l0-0.5l0-2.1l0-0.5h-0.5h-4.1h-0.5v0.5V41.3z M29.9,37.7h4.1
			c0.9,0,1.6,0.7,1.6,1.6v2.1c0,0.9-0.7,1.6-1.6,1.6h-4.1c-0.9,0-1.6-0.7-1.6-1.6v-2.1C28.4,38.4,29.1,37.7,29.9,37.7z"/>
		<path class="st2" d="M28.9,29.4h6.2c1.4,0,2.6,1.2,2.6,2.6s-1.2,2.6-2.6,2.6h-6.2c-1.4,0-2.6-1.2-2.6-2.6S27.5,29.4,28.9,29.4z
			 M28.9,33.5h6.2c0.8,0,1.5-0.7,1.5-1.5c0-0.8-0.7-1.5-1.5-1.5h-6.2c-0.8,0-1.5,0.7-1.5,1.5C27.4,32.8,28.1,33.5,28.9,33.5z"/>
		<path class="st2" d="M39.8,57.8v0.5h0.5h4.1h0.5l0-0.5l0-2.1l0-0.5h-0.5h-4.1h-0.5v0.5V57.8z M40.3,54.2h4.1
			c0.9,0,1.6,0.7,1.6,1.6v2.1c0,0.9-0.7,1.6-1.6,1.6h-4.1c-0.9,0-1.6-0.7-1.6-1.6v-2.1C38.7,54.9,39.4,54.2,40.3,54.2z"/>
		<path class="st2" d="M39.8,49.5V50h0.5h4.1h0.5l0-0.5l0-2.1l0-0.5h-0.5h-4.1h-0.5v0.5V49.5z M40.3,45.9h4.1c0.9,0,1.6,0.7,1.6,1.6
			v2.1c0,0.9-0.7,1.6-1.6,1.6h-4.1c-0.9,0-1.6-0.7-1.6-1.6v-2.1C38.7,46.6,39.4,45.9,40.3,45.9z"/>
		<path class="st2" d="M39.8,41.3v0.5h0.5h4.1h0.5l0-0.5l0-2.1l0-0.5h-0.5h-4.1h-0.5v0.5V41.3z M40.3,37.7h4.1
			c0.9,0,1.6,0.7,1.6,1.6v2.1c0,0.9-0.7,1.6-1.6,1.6h-4.1c-0.9,0-1.6-0.7-1.6-1.6v-2.1C38.7,38.4,39.4,37.7,40.3,37.7z"/>
		<path class="st2" d="M42.3,30.5h-0.5V31V33v0.5h0.5h2.1h0.5V33V31v-0.5h-0.5H42.3z M46,29.4v5.2h-5.2v-5.2H46z"/>
		<path class="st2" d="M21.7,33.5h0.5V33V31v-0.5h-0.5h-2.1h-0.5V31V33v0.5h0.5H21.7z M18,29.4h5.2v5.2H18V29.4z"/>
	</g>
</g>
</svg>
