<?xml version="1.0" encoding="utf-8"?>
<!-- Generator: Adobe Illustrator 24.1.3, SVG Export Plug-In . SVG Version: 6.00 Build 0)  -->
<svg version="1.1" id="Camada_1" xmlns="http://www.w3.org/2000/svg" xmlns:xlink="http://www.w3.org/1999/xlink" x="0px" y="0px"
	 viewBox="0 0 64 64" style="enable-background:new 0 0 64 64;" xml:space="preserve">
<style type="text/css">
	.st0{clip-path:url(#SVGID_2_);}
	.st1{fill:none;stroke:#322153;stroke-width:2;}
	.st2{fill:#409B70;}
	.st3{fill:#322153;stroke:#322153;}
</style>
<g>
	<defs>
		<rect id="SVGID_1_" width="64" height="64"/>
	</defs>
	<clipPath id="SVGID_2_">
		<use xlink:href="#SVGID_1_"  style="overflow:visible;"/>
	</clipPath>
	<g class="st0">
		<path class="st1" d="M11,28h9v10h-9V28z"/>
		<path class="st2" d="M38,14c-0.4,1.6-4,3.3-4,5.1V26h29v-6.9c0-1.8-4.1-3.6-4.5-5.1H38z"/>
		<path class="st2" d="M1,38.2v5.2c0,0.7-0.5,5.1,7,7.6l0.5,3.5H15h7.5c0-5,5.5-5,7-9l0.4-7.3H1z"/>
		<path class="st3" d="M56.3,12.6V13l0.4,0.1c3.9,0.9,6.8,4.4,6.8,8.6v4.7h-7.8h-0.5v0.5v29.9c0,3.7-3,6.7-6.7,6.7
			c-3.7,0-6.7-3-6.7-6.7V26.8v-0.5h-0.5h-7.8v-4.7c0-4.2,2.9-7.7,6.8-8.6l0.4-0.1v-0.4V7.2c0-1.1,0.7-2.1,1.7-2.4l0.3-0.1V4.3V3.1
			c0-1.4,1.2-2.6,2.6-2.6h6.2c1.4,0,2.6,1.2,2.6,2.6v1.2v0.4l0.3,0.1c1,0.4,1.7,1.3,1.7,2.4V12.6z M52.6,4.6h0.5V4.1v-1
			c0-0.8-0.7-1.5-1.5-1.5h-6.2c-0.8,0-1.5,0.7-1.5,1.5v1v0.5h0.5H52.6z M54.7,12.9h0.5v-0.5V7.2c0-0.8-0.7-1.5-1.5-1.5H43.4
			c-0.8,0-1.5,0.7-1.5,1.5v5.2v0.5h0.5H54.7z M43.4,26.3h-0.5v0.5v29.9c0,3.1,2.5,5.7,5.7,5.7c3.1,0,5.7-2.5,5.7-5.7V26.8v-0.5h-0.5
			h-2.1h-0.5v0.5v29.9c0,1.4-1.2,2.6-2.6,2.6c-1.4,0-2.6-1.2-2.6-2.6V26.8v-0.5h-0.5H43.4z M47.5,26.3H47v0.5v29.9
			c0,0.8,0.7,1.5,1.5,1.5c0.8,0,1.5-0.7,1.5-1.5V26.8v-0.5h-0.5H47.5z M34.6,24.8v0.5h0.5h26.8h0.5v-0.5v-2.1v-2.1v-0.5h-0.2
			c-0.7-3.5-3.8-6.2-7.6-6.2H42.3c-3.7,0-6.9,2.7-7.6,6.2h-0.2v0.5v2.1V24.8z"/>
		<path class="st3" d="M7.7,51.5v-0.4l-0.4-0.1c-3.8-0.5-6.8-3.8-6.8-7.7v-5.7h30v5.7c0,3.9-3,7.2-6.8,7.7l-0.4,0.1v0.4v5.2
			c0,1.1-0.7,2.1-1.7,2.4l-0.3,0.1v0.4v1.2c0,1.4-1.2,2.6-2.6,2.6h-6.2c-1.4,0-2.6-1.2-2.6-2.6v-1.2v-0.4l-0.3-0.1
			c-1-0.4-1.7-1.3-1.7-2.4V51.5z M11.4,59.4h-0.5v0.5v1c0,0.8,0.7,1.5,1.5,1.5h6.2c0.8,0,1.5-0.7,1.5-1.5v-1v-0.5h-0.5H11.4z
			 M9.3,55.2H8.8v0.5v1c0,0.8,0.7,1.5,1.5,1.5h10.3c0.8,0,1.5-0.7,1.5-1.5v-1v-0.5h-0.5H9.3z M29.4,39.2v-0.5h-0.5H2.1H1.6v0.5v2.1
			v2.1c0,3.7,3,6.7,6.7,6.7h0.5v3.6v0.5h0.5h12.4h0.5v-0.5V50h0.5c3.7,0,6.7-3,6.7-6.7v-2.1V39.2z"/>
		<path class="st3" d="M27.8,14.4L27.4,15l0.6,0.2c1.4,0.5,2.4,1.8,2.4,3.4s-1,2.9-2.4,3.4l-0.6,0.2l0.4,0.5c0.4,0.6,0.6,1.3,0.6,2
			c0,2-1.6,3.6-3.6,3.6H6.2c-2,0-3.6-1.6-3.6-3.6c0-0.8,0.2-1.5,0.6-2l0.4-0.5L2.9,22c-1.4-0.5-2.4-1.8-2.4-3.4s1-2.9,2.4-3.4
			L3.6,15l-0.4-0.5c-0.4-0.6-0.6-1.3-0.6-2c0-1.6,1-2.9,2.4-3.4l0.6-0.2L5.3,8.2c-0.4-0.6-0.6-1.3-0.6-2c0-2,1.6-3.6,3.6-3.6h10.3
			c2,0,3.6,1.6,3.6,3.6c0,0.7-0.2,1.3-0.5,1.8l-0.4,0.8h0.9h2.6c2,0,3.6,1.6,3.6,3.6C28.4,13.1,28.2,13.8,27.8,14.4z M18.6,3.6H8.3
			c-1.4,0-2.6,1.1-2.6,2.6s1.1,2.6,2.6,2.6h10.3c1.4,0,2.6-1.1,2.6-2.6S20,3.6,18.6,3.6z M24.8,9.8H6.2c-1.4,0-2.6,1.1-2.6,2.6
			c0,1.4,1.1,2.6,2.6,2.6h18.6c1.4,0,2.6-1.1,2.6-2.6C27.3,11,26.2,9.8,24.8,9.8z M6.2,27.3h18.6c1.4,0,2.6-1.1,2.6-2.6
			c0-1.4-1.1-2.6-2.6-2.6H6.2c-1.4,0-2.6,1.1-2.6,2.6C3.6,26.2,4.8,27.3,6.2,27.3z M4.1,21.1h22.7c1.4,0,2.6-1.1,2.6-2.6
			c0-1.4-1.1-2.6-2.6-2.6H4.1c-1.4,0-2.6,1.1-2.6,2.6C1.6,20,2.7,21.1,4.1,21.1z"/>
	</g>
</g>
</svg>
