<?xml version="1.0" encoding="utf-8"?>
<!-- Generator: Adobe Illustrator 24.1.3, SVG Export Plug-In . SVG Version: 6.00 Build 0)  -->
<svg version="1.1" id="Camada_1" xmlns="http://www.w3.org/2000/svg" xmlns:xlink="http://www.w3.org/1999/xlink" x="0px" y="0px"
	 viewBox="0 0 64 64" style="enable-background:new 0 0 64 64;" xml:space="preserve">
<style type="text/css">
	.st0{fill:#409B70;}
	.st1{fill:#FFFFFF;filter:url(#Adobe_OpacityMaskFilter);}
	.st2{mask:url(#path-5-inside-1_1_);fill:#322153;stroke:#322153;stroke-width:2;}
	.st3{fill:#322153;stroke:#322153;}
</style>
<path class="st0" d="M58,28v20H26V28H58z M47.5,39.4c0-0.9-0.4-1.8-1.3-2.6L42,32.5l-3.7,4.3c-0.8,0.7-1.3,1.6-1.3,2.6
	c0,2.2,1,4.6,4,4.6h1.5c1.5,0,3.1-1,4.1-1.7C47.6,41.6,47.5,40.6,47.5,39.4z"/>
<path class="st0" d="M25.8,22.7v8.2c-2.6-0.4-3-2-6.2-2C16,28.9,16,31,12.4,31c-3.2,0-3.6-1.6-6.1-2c0.2-2.1,0.5-4.2,1.1-6.3H25.8z"
	/>
<path class="st0" d="M25.8,52.6v2.1H5.7c0-0.1,0.1-0.1,0.1-0.2L6.5,53c1.1-2.3,1.7-4.8,1.7-7.4c0-1.5-0.2-2.9-0.6-4.4h0
	c0-0.1,0-0.1,0-0.2l-0.1-0.5c-0.5-1.9-0.9-3.9-1.2-7.5h0c2.6,0.4,2.9,2,6.1,2c3.6,0,3.6-2.1,7.2-2.1c3.2,0,3.6,1.7,6.2,2V52.6z"/>
<defs>
	<filter id="Adobe_OpacityMaskFilter" filterUnits="userSpaceOnUse" x="3.1" y="-1" width="57.7" height="66">
		<feColorMatrix  type="matrix" values="1 0 0 0 0  0 1 0 0 0  0 0 1 0 0  0 0 0 1 0"/>
	</filter>
</defs>
<mask maskUnits="userSpaceOnUse" x="3.1" y="-1" width="57.7" height="66" id="path-5-inside-1_1_">
	<path class="st1" d="M57,16.9l-5.4-4V8.3h2.1V3.1c0-1.7-1.4-3.1-3.1-3.1H34.1C32.4,0,31,1.4,31,3.1v5.2H33v4.6l-5.4,4
		c-0.2,0.2-0.5,0.4-0.7,0.6c-0.7-1.6-1.5-3.1-2.5-4.6L22.7,10V8.3h2.1V3.1c0-1.7-1.4-3.1-3.1-3.1h-8.3c-1.7,0-3.1,1.4-3.1,3.1v5.2
		h2.1V10l-1.8,2.9c-3.5,5.6-5.4,12-5.4,18.5c0,3.2,0.4,6.4,1.3,9.5l0.1,0.5c0.4,1.4,0.6,2.8,0.6,4.2c0,2.4-0.6,4.8-1.6,6.9L4.9,54
		c-0.5,0.9-0.7,2-0.7,3.1c0,3.8,3.1,6.9,6.9,6.9h1c1.2,0,2.4-0.5,3.2-1.3c0.5-0.5,1.1-0.7,1.8-0.7h1.2c0.7,0,1.3,0.3,1.8,0.7
		c0.9,0.9,2,1.3,3.2,1.3h1c1.4,0,2.7-0.4,3.9-1.2c1.2,0.8,2.5,1.2,4,1.2h20.6c4,0,7.2-3.2,7.2-7.2V22.7C59.9,20.4,58.8,18.3,57,16.9
		z M57.8,24.8v31h-31v-2.1v-2.1V22.7c0-0.7,0.2-1.4,0.4-2.1h30.1c0.3,0.6,0.4,1.3,0.4,2.1V24.8z M7.2,31.4c0-0.4,0-0.7,0-1.1
		c0.3,0.1,0.7,0.3,1,0.5c1,0.5,2,1.2,4.1,1.2c2.1,0,3.2-0.6,4.1-1.2c0.8-0.5,1.6-0.9,3.1-0.9c1.5,0,2.3,0.4,3.1,0.9
		c0.6,0.3,1.2,0.7,2.1,0.9v2c-0.4-0.1-0.7-0.3-1-0.5c-1-0.5-2-1.2-4.1-1.2c-2.1,0-3.2,0.6-4.1,1.2c-0.8,0.5-1.6,0.9-3.1,0.9
		c-1.5,0-2.3-0.4-3.1-0.9c-0.6-0.3-1.2-0.7-2-0.9C7.2,32,7.2,31.7,7.2,31.4z M33,3.1c0-0.6,0.5-1,1-1h16.5c0.6,0,1,0.5,1,1v3.1H33
		V3.1z M49.5,8.3v4.1H35.1V8.3H49.5z M34.4,14.5h15.8l5.5,4.1H28.9L34.4,14.5z M12.4,3.1c0-0.6,0.5-1,1-1h8.3c0.6,0,1,0.5,1,1v3.1
		H12.4V3.1z M12.3,14l2.1-3.4V8.3h6.2v2.4l2.1,3.4c1.1,1.7,2,3.5,2.8,5.4c-0.5,1-0.8,2.1-0.8,3.3v6.9c-0.4-0.1-0.7-0.3-1-0.5
		c-1-0.5-2-1.2-4.1-1.2c-2.1,0-3.2,0.6-4.1,1.2c-0.8,0.5-1.6,0.9-3.1,0.9c-1.5,0-2.3-0.4-3.1-0.9c-0.5-0.3-1.1-0.6-1.9-0.9
		C7.9,23.1,9.6,18.3,12.3,14z M23.1,61.9c-0.7,0-1.3-0.3-1.8-0.7c-0.9-0.9-2-1.3-3.2-1.3h-1.2c-1.2,0-2.4,0.5-3.2,1.3
		c-0.5,0.5-1.1,0.7-1.8,0.7h-1c-2.7,0-4.8-2.2-4.8-4.8c0-0.7,0.2-1.5,0.5-2.2l0.7-1.5c1.2-2.4,1.8-5.1,1.8-7.8
		c0-1.1-0.1-2.2-0.3-3.3l-0.5-2.1c-0.5-1.9-0.9-3.8-1.1-5.7C7.7,34.6,8,34.8,8.3,35c1,0.5,2,1.2,4.1,1.2c2.1,0,3.2-0.6,4.1-1.2
		c0.8-0.5,1.6-0.9,3.1-0.9c1.5,0,2.3,0.4,3.1,0.9c0.6,0.3,1.2,0.7,2.1,0.9v20.9c0,1.7,0.6,3.3,1.6,4.6c-0.7,0.4-1.5,0.6-2.3,0.6
		H23.1z M52.6,61.9H32c-2.5,0-4.6-1.8-5.1-4.1h30.8C57.2,60.2,55.1,61.9,52.6,61.9z"/>
</mask>
<path class="st2" d="M57,16.9l-5.4-4V8.3h2.1V3.1c0-1.7-1.4-3.1-3.1-3.1H34.1C32.4,0,31,1.4,31,3.1v5.2H33v4.6l-5.4,4
	c-0.2,0.2-0.5,0.4-0.7,0.6c-0.7-1.6-1.5-3.1-2.5-4.6L22.7,10V8.3h2.1V3.1c0-1.7-1.4-3.1-3.1-3.1h-8.3c-1.7,0-3.1,1.4-3.1,3.1v5.2
	h2.1V10l-1.8,2.9c-3.5,5.6-5.4,12-5.4,18.5c0,3.2,0.4,6.4,1.3,9.5l0.1,0.5c0.4,1.4,0.6,2.8,0.6,4.2c0,2.4-0.6,4.8-1.6,6.9L4.9,54
	c-0.5,0.9-0.7,2-0.7,3.1c0,3.8,3.1,6.9,6.9,6.9h1c1.2,0,2.4-0.5,3.2-1.3c0.5-0.5,1.1-0.7,1.8-0.7h1.2c0.7,0,1.3,0.3,1.8,0.7
	c0.9,0.9,2,1.3,3.2,1.3h1c1.4,0,2.7-0.4,3.9-1.2c1.2,0.8,2.5,1.2,4,1.2h20.6c4,0,7.2-3.2,7.2-7.2V22.7C59.9,20.4,58.8,18.3,57,16.9z
	 M57.8,24.8v31h-31v-2.1v-2.1V22.7c0-0.7,0.2-1.4,0.4-2.1h30.1c0.3,0.6,0.4,1.3,0.4,2.1V24.8z M7.2,31.4c0-0.4,0-0.7,0-1.1
	c0.3,0.1,0.7,0.3,1,0.5c1,0.5,2,1.2,4.1,1.2c2.1,0,3.2-0.6,4.1-1.2c0.8-0.5,1.6-0.9,3.1-0.9c1.5,0,2.3,0.4,3.1,0.9
	c0.6,0.3,1.2,0.7,2.1,0.9v2c-0.4-0.1-0.7-0.3-1-0.5c-1-0.5-2-1.2-4.1-1.2c-2.1,0-3.2,0.6-4.1,1.2c-0.8,0.5-1.6,0.9-3.1,0.9
	c-1.5,0-2.3-0.4-3.1-0.9c-0.6-0.3-1.2-0.7-2-0.9C7.2,32,7.2,31.7,7.2,31.4z M33,3.1c0-0.6,0.5-1,1-1h16.5c0.6,0,1,0.5,1,1v3.1H33
	V3.1z M49.5,8.3v4.1H35.1V8.3H49.5z M34.4,14.5h15.8l5.5,4.1H28.9L34.4,14.5z M12.4,3.1c0-0.6,0.5-1,1-1h8.3c0.6,0,1,0.5,1,1v3.1
	H12.4V3.1z M12.3,14l2.1-3.4V8.3h6.2v2.4l2.1,3.4c1.1,1.7,2,3.5,2.8,5.4c-0.5,1-0.8,2.1-0.8,3.3v6.9c-0.4-0.1-0.7-0.3-1-0.5
	c-1-0.5-2-1.2-4.1-1.2c-2.1,0-3.2,0.6-4.1,1.2c-0.8,0.5-1.6,0.9-3.1,0.9c-1.5,0-2.3-0.4-3.1-0.9c-0.5-0.3-1.1-0.6-1.9-0.9
	C7.9,23.1,9.6,18.3,12.3,14z M23.1,61.9c-0.7,0-1.3-0.3-1.8-0.7c-0.9-0.9-2-1.3-3.2-1.3h-1.2c-1.2,0-2.4,0.5-3.2,1.3
	c-0.5,0.5-1.1,0.7-1.8,0.7h-1c-2.7,0-4.8-2.2-4.8-4.8c0-0.7,0.2-1.5,0.5-2.2l0.7-1.5c1.2-2.4,1.8-5.1,1.8-7.8c0-1.1-0.1-2.2-0.3-3.3
	l-0.5-2.1c-0.5-1.9-0.9-3.8-1.1-5.7C7.7,34.6,8,34.8,8.3,35c1,0.5,2,1.2,4.1,1.2c2.1,0,3.2-0.6,4.1-1.2c0.8-0.5,1.6-0.9,3.1-0.9
	c1.5,0,2.3,0.4,3.1,0.9c0.6,0.3,1.2,0.7,2.1,0.9v20.9c0,1.7,0.6,3.3,1.6,4.6c-0.7,0.4-1.5,0.6-2.3,0.6H23.1z M52.6,61.9H32
	c-2.5,0-4.6-1.8-5.1-4.1h30.8C57.2,60.2,55.1,61.9,52.6,61.9z"/>
<path class="st3" d="M42.7,33.3l-0.4-0.5l-0.4,0.5l-3.3,4c0,0,0,0,0,0c0,0,0,0,0,0c-0.6,0.7-0.9,1.6-0.9,2.6c0,2.2,1.8,4,4,4h1.2
	c2.2,0,4-1.8,4-4c0-0.9-0.3-1.9-0.9-2.6c0,0,0,0,0,0L42.7,33.3z M42.9,44.9h-1.2c-2.8,0-5.1-2.3-5.1-5.1c0-1.2,0.4-2.3,1.2-3.3
	c0,0,0,0,0,0l4.5-5.4l4.5,5.4c0,0,0,0,0,0c0.8,0.9,1.2,2.1,1.2,3.3C48,42.6,45.7,44.9,42.9,44.9z"/>
</svg>
