<?xml version="1.0" encoding="utf-8"?>
<!-- Generator: Adobe Illustrator 24.1.3, SVG Export Plug-In . SVG Version: 6.00 Build 0)  -->
<svg version="1.1" id="Camada_1" xmlns="http://www.w3.org/2000/svg" xmlns:xlink="http://www.w3.org/1999/xlink" x="0px" y="0px"
	 viewBox="0 0 64 64" style="enable-background:new 0 0 64 64;" xml:space="preserve">
<style type="text/css">
	.st0{fill:#409B70;}
	.st1{fill-rule:evenodd;clip-rule:evenodd;fill:#322153;}
	.st2{fill-rule:evenodd;clip-rule:evenodd;fill:#FFFFFF;filter:url(#Adobe_OpacityMaskFilter);}
	.st3{mask:url(#path-4-inside-1_1_);fill:#322153;}
</style>
<path class="st0" d="M11,44V27h11c-0.3,0.2-0.5,0.3-0.8,0.4c-2.1,1-3.5,2.9-3.9,5.1l-1.5,7.3l0,0.2C13.7,40.6,11.9,42,11,44L11,44z"
	/>
<path class="st0" d="M43.9,2.6L48.5,2L56,16.1v2.3L54.3,20H38.2L37,17.8l0.6-3.9L43.9,2.6z"/>
<path class="st1" d="M52.7,49.5c4.4,0,8,3.5,8,7.9v3.4V63H3.3l0-2.3v-3.4c0-3.2,1.9-5.9,4.7-7.2l2-6.4c0.1-0.2,0.1-0.3,0.2-0.5
	c0-0.1,0.1-0.1,0.1-0.2V25.2c0-2.1,1.2-4.1,3.2-5l1.4-0.7v-2.7h-2.3v-3.4c0-1.9,1.5-3.4,3.4-3.4h6.9c1.9,0,3.4,1.5,3.4,3.4v3.4H24
	v2.7l1.4,0.7c1.1,0.5,1.9,1.4,2.5,2.4c0.4-0.1,0.8-0.1,1.3-0.1c1.1,0,2.1,0.2,2.9,0.7c0.7-0.3,1.8-0.7,2.8-0.7
	c2.5,0,4.4,1.3,6.1,2.5l0,0c0.6,0.4,1.2,0.8,1.8,1.1l3-1.9v-2.8h-4.3c-2.7,0-4.9-2.1-4.9-4.8c0-0.7,0.2-1.5,0.5-2.1l5.5-10.7
	C43.4,2,45.1,1,46.9,1c1.9,0,3.5,1,4.4,2.6l5.5,10.7c0.3,0.7,0.5,1.4,0.5,2.1c0,2.6-2.2,4.8-4.9,4.8h-4.3v2.8l6.4,4.2l-1.3,1.9
	l-5.1-3.3v2.9l6.4,4.2l-1.3,1.9l-5.1-3.3v2.9l6.4,4.2l-1.3,1.9l-5.1-3.3V41l6.4,4.2L53.2,47l-5.1-3.3v3.6c1.7,0.2,3.3,1,4.5,2.2
	H52.7z M39.2,15.4c-0.2,0.3-0.3,0.7-0.3,1.1c0,1.4,1.2,2.5,2.6,2.5h10.9c1.4,0,2.6-1.1,2.6-2.5c0-0.4-0.1-0.8-0.3-1.1L49.2,4.6
	c-0.3-0.5-0.7-0.9-1.1-1.1h-2.3c-0.5,0.2-0.9,0.6-1.1,1.1L39.2,15.4z M52.7,56.1v-1c0-2.7-2-5-4.6-5.5v1
	C48.1,53.3,50,55.6,52.7,56.1z M41.2,56.1c2.6-0.5,4.6-2.8,4.6-5.5v-1c-2.6,0.5-4.6,2.8-4.6,5.5V56.1z M15.9,12.3
	c-0.6,0-1.1,0.5-1.1,1.1v1.1H24v-1.1c0-0.6-0.5-1.1-1.1-1.1H15.9z M17.1,20.9l-2.7,1.3c-1.2,0.6-1.9,1.7-1.9,3V40
	c0.7-0.6,1.5-1,2.4-1.4l1.3-6.6c0.5-2.5,2.2-4.7,4.4-5.7c0.8-0.4,1.6-0.9,2.4-1.5c0.8-0.6,1.7-1.1,2.6-1.6c-0.3-0.5-0.8-0.8-1.3-1.1
	l-2.7-1.3v-4.1h-4.6V20.9z M11.3,51.7c-3.2,0-5.7,2.5-5.7,5.6v3.4h52.8v-3.4c0-2.5-1.7-4.7-4.1-5.4c0.4,1,0.7,2,0.7,3.1v3.4h-1.1
	c-2.9,0-5.5-1.5-6.9-3.8c-1.4,2.3-4,3.8-6.9,3.8h-1.1v-3.4c0-4,3-7.3,6.9-7.8v-3.6L40.7,47l-1.3-1.9l6.4-4.2v-2.9l-5.1,3.3l-1.3-1.9
	l6.4-4.2v-2.9l-5.1,3.3l-1.3-1.9l6.4-4.2v-2.9l-5.1,3.3l-1.3-1.9l1.3-0.8c-0.3-0.2-0.7-0.4-1-0.7c-1.5-1.1-3-2.1-4.8-2.1
	c-0.7,0-1.8,0.5-2.3,0.8l-0.7,0.4l-0.6-0.4c-0.7-0.5-1.3-0.7-2.2-0.7c-1.8,0-3.3,1-4.8,2.1c-0.8,0.6-1.7,1.2-2.7,1.6
	c-1,0.5-1.8,1.3-2.4,2.2l0,0l0,0c0,0,0,0,0,0c0,0,0,0,0,0l-0.8,2.1c0,0,0,0,0,0l-1.1,5.5c0,0,0.1,0,0.1,0c0.1,0,0.1,0,0.2,0h12.1
	v2.3H17.6c-2.6,0-4.8,1.6-5.5,4l-1.5,5c0.3,0,0.5,0,0.8,0h11.5v2.3H11.3z"/>
<defs>
	<filter id="Adobe_OpacityMaskFilter" filterUnits="userSpaceOnUse" x="2.3" y="0" width="59.4" height="64">
		<feColorMatrix  type="matrix" values="1 0 0 0 0  0 1 0 0 0  0 0 1 0 0  0 0 0 1 0"/>
	</filter>
</defs>
<mask maskUnits="userSpaceOnUse" x="2.3" y="0" width="59.4" height="64" id="path-4-inside-1_1_">
	<path class="st2" d="M52.7,49.5c4.4,0,8,3.5,8,7.9v3.4V63H3.3l0-2.3v-3.4c0-3.2,1.9-5.9,4.7-7.2l2-6.4c0.1-0.2,0.1-0.3,0.2-0.5
		c0-0.1,0.1-0.1,0.1-0.2V25.2c0-2.1,1.2-4.1,3.2-5l1.4-0.7v-2.7h-2.3v-3.4c0-1.9,1.5-3.4,3.4-3.4h6.9c1.9,0,3.4,1.5,3.4,3.4v3.4H24
		v2.7l1.4,0.7c1.1,0.5,1.9,1.4,2.5,2.4c0.4-0.1,0.8-0.1,1.3-0.1c1.1,0,2.1,0.2,2.9,0.7c0.7-0.3,1.8-0.7,2.8-0.7
		c2.5,0,4.4,1.3,6.1,2.5l0,0c0.6,0.4,1.2,0.8,1.8,1.1l3-1.9v-2.8h-4.3c-2.7,0-4.9-2.1-4.9-4.8c0-0.7,0.2-1.5,0.5-2.1l5.5-10.7
		C43.4,2,45.1,1,46.9,1c1.9,0,3.5,1,4.4,2.6l5.5,10.7c0.3,0.7,0.5,1.4,0.5,2.1c0,2.6-2.2,4.8-4.9,4.8h-4.3v2.8l6.4,4.2l-1.3,1.9
		l-5.1-3.3v2.9l6.4,4.2l-1.3,1.9l-5.1-3.3v2.9l6.4,4.2l-1.3,1.9l-5.1-3.3V41l6.4,4.2L53.2,47l-5.1-3.3v3.6c1.7,0.2,3.3,1,4.5,2.2
		H52.7z M39.2,15.4c-0.2,0.3-0.3,0.7-0.3,1.1c0,1.4,1.2,2.5,2.6,2.5h10.9c1.4,0,2.6-1.1,2.6-2.5c0-0.4-0.1-0.8-0.3-1.1L49.2,4.6
		c-0.3-0.5-0.7-0.9-1.1-1.1h-2.3c-0.5,0.2-0.9,0.6-1.1,1.1L39.2,15.4z M52.7,56.1v-1c0-2.7-2-5-4.6-5.5v1
		C48.1,53.3,50,55.6,52.7,56.1z M41.2,56.1c2.6-0.5,4.6-2.8,4.6-5.5v-1c-2.6,0.5-4.6,2.8-4.6,5.5V56.1z M15.9,12.3
		c-0.6,0-1.1,0.5-1.1,1.1v1.1H24v-1.1c0-0.6-0.5-1.1-1.1-1.1H15.9z M17.1,20.9l-2.7,1.3c-1.2,0.6-1.9,1.7-1.9,3V40
		c0.7-0.6,1.5-1,2.4-1.4l1.3-6.6c0.5-2.5,2.2-4.7,4.4-5.7c0.8-0.4,1.6-0.9,2.4-1.5c0.8-0.6,1.7-1.1,2.6-1.6
		c-0.3-0.5-0.8-0.8-1.3-1.1l-2.7-1.3v-4.1h-4.6V20.9z M11.3,51.7c-3.2,0-5.7,2.5-5.7,5.6v3.4h52.8v-3.4c0-2.5-1.7-4.7-4.1-5.4
		c0.4,1,0.7,2,0.7,3.1v3.4h-1.1c-2.9,0-5.5-1.5-6.9-3.8c-1.4,2.3-4,3.8-6.9,3.8h-1.1v-3.4c0-4,3-7.3,6.9-7.8v-3.6L40.7,47l-1.3-1.9
		l6.4-4.2v-2.9l-5.1,3.3l-1.3-1.9l6.4-4.2v-2.9l-5.1,3.3l-1.3-1.9l6.4-4.2v-2.9l-5.1,3.3l-1.3-1.9l1.3-0.8c-0.3-0.2-0.7-0.4-1-0.7
		c-1.5-1.1-3-2.1-4.8-2.1c-0.7,0-1.8,0.5-2.3,0.8l-0.7,0.4l-0.6-0.4c-0.7-0.5-1.3-0.7-2.2-0.7c-1.8,0-3.3,1-4.8,2.1
		c-0.8,0.6-1.7,1.2-2.7,1.6c-1,0.5-1.8,1.3-2.4,2.2l0,0l0,0c0,0,0,0,0,0c0,0,0,0,0,0l-0.8,2.1c0,0,0,0,0,0l-1.1,5.5c0,0,0.1,0,0.1,0
		c0.1,0,0.1,0,0.2,0h12.1v2.3H17.6c-2.6,0-4.8,1.6-5.5,4l-1.5,5c0.3,0,0.5,0,0.8,0h11.5v2.3H11.3z"/>
</mask>
<path class="st3" d="M60.7,63v1h1v-1H60.7z M3.3,63l-1,0l0,1h1V63z M3.3,60.7h-1l0,0H3.3z M8,50.2l0.4,0.9l0.4-0.2l0.1-0.4L8,50.2z
	 M9.9,43.8l-1-0.3l0,0L9.9,43.8z M10.1,43.3l0.9,0.4l0,0L10.1,43.3z M10.2,43.1l0.9,0.4l0.1-0.2v-0.2H10.2z M13.4,20.2l0.4,0.9l0,0
	L13.4,20.2z M14.8,19.5l0.4,0.9l0.6-0.3v-0.6H14.8z M14.8,16.8h1v-1h-1V16.8z M12.5,16.8h-1v1h1V16.8z M26.3,16.8v1h1v-1H26.3z
	 M24,16.8v-1h-1v1H24z M24,19.5h-1v0.6l0.6,0.3L24,19.5z M25.4,20.2l-0.4,0.9l0,0L25.4,20.2z M27.9,22.5L27,23l0.3,0.6l0.7-0.1
	L27.9,22.5z M32.1,23.2L31.6,24l0.4,0.3l0.5-0.2L32.1,23.2z M41,24.9l0.6-0.8l0,0L41,24.9z M41,24.9l-0.6,0.8l0,0L41,24.9z M42.8,26
	l-0.5,0.9l0.5,0.3l0.5-0.3L42.8,26z M45.8,24.1l0.5,0.8l0.5-0.3v-0.5H45.8z M45.8,21.3h1v-1h-1V21.3z M37.1,14.4l-0.9-0.5l0,0
	L37.1,14.4z M42.6,3.6l0.9,0.5l0,0L42.6,3.6z M51.3,3.6l0.9-0.5v0L51.3,3.6z M56.7,14.4l0.9-0.5l0,0L56.7,14.4z M48.1,21.3v-1h-1v1
	H48.1z M48.1,24.1h-1v0.5l0.5,0.3L48.1,24.1z M54.5,28.2l0.8,0.6l0.6-0.8L55,27.4L54.5,28.2z M53.2,30.1L52.6,31l0.8,0.5l0.6-0.8
	L53.2,30.1z M48.1,26.8l0.5-0.8l-1.5-1v1.9H48.1z M48.1,29.7h-1v0.5l0.5,0.3L48.1,29.7z M54.5,33.9l0.8,0.6l0.6-0.8L55,33L54.5,33.9
	z M53.2,35.8l-0.5,0.8l0.8,0.5l0.6-0.8L53.2,35.8z M48.1,32.4l0.5-0.8l-1.5-1v1.8H48.1z M48.1,35.3h-1v0.5l0.5,0.3L48.1,35.3z
	 M54.5,39.5l0.8,0.6l0.6-0.8L55,38.7L54.5,39.5z M53.2,41.4l-0.5,0.8l0.8,0.5L54,42L53.2,41.4z M48.1,38.1l0.5-0.8l-1.5-1v1.9H48.1z
	 M48.1,41h-1v0.5l0.5,0.3L48.1,41z M54.5,45.2l0.8,0.6l0.6-0.8L55,44.3L54.5,45.2z M53.2,47l-0.5,0.8l0.8,0.5l0.6-0.8L53.2,47z
	 M48.1,43.7l0.5-0.8l-1.5-1v1.8H48.1z M48.1,47.3h-1v0.9l0.9,0.1L48.1,47.3z M52.5,49.5l-0.7,0.7l0.3,0.3h0.4V49.5z M39.2,15.4
	l-0.9-0.5l0,0L39.2,15.4z M54.7,15.4l-0.9,0.5l0,0L54.7,15.4z M49.2,4.6l0.9-0.5l0,0L49.2,4.6z M48.1,3.5l0.4-0.9l-0.2-0.1h-0.2V3.5
	z M45.8,3.5v-1h-0.2l-0.2,0.1L45.8,3.5z M44.6,4.6l-0.9-0.5l0,0L44.6,4.6z M52.7,56.1l-0.2,1l1.2,0.2v-1.2H52.7z M48.1,49.6l0.2-1
	l-1.2-0.2v1.2H48.1z M41.2,56.1h-1v1.2l1.2-0.2L41.2,56.1z M45.8,49.6h1v-1.2l-1.2,0.2L45.8,49.6z M14.8,14.5h-1v1h1V14.5z M24,14.5
	v1h1v-1H24z M14.4,22.2l0.4,0.9l0,0L14.4,22.2z M17.1,20.9l0.4,0.9l0.6-0.3v-0.6H17.1z M12.5,40h-1v2.1l1.6-1.3L12.5,40z M14.9,38.7
	l0.3,0.9l0.5-0.2l0.1-0.6L14.9,38.7z M16.2,32.1l-1-0.2l0,0L16.2,32.1z M20.6,26.3l0.4,0.9l0,0L20.6,26.3z M23,24.9L22.5,24h0
	L23,24.9z M25.6,23.3l0.4,0.9l1.1-0.5l-0.7-1L25.6,23.3z M24.4,22.2l0.4-0.9L24.4,22.2z M21.7,20.9h-1v0.6l0.6,0.3L21.7,20.9z
	 M21.7,16.8h1v-1h-1V16.8z M17.1,16.8v-1h-1v1H17.1z M5.6,60.7h-1v1h1V60.7z M58.4,60.7v1h1v-1H58.4z M54.3,52l0.3-1l-2.1-0.6l0.9,2
	L54.3,52z M55,58.5v1h1v-1H55z M46.9,54.6l0.9-0.5l-0.9-1.4l-0.9,1.4L46.9,54.6z M38.9,58.5h-1v1h1V58.5z M45.8,47.3l0.1,1l0.9-0.1
	v-0.9H45.8z M45.8,43.7h1v-1.8l-1.5,1L45.8,43.7z M40.7,47l-0.8,0.6l0.6,0.8l0.8-0.5L40.7,47z M39.4,45.2l-0.5-0.8L38,44.9l0.6,0.8
	L39.4,45.2z M45.8,41l0.5,0.8l0.5-0.3V41H45.8z M45.8,38.1h1v-1.8l-1.5,1L45.8,38.1z M40.7,41.4L39.8,42l0.6,0.8l0.8-0.5L40.7,41.4z
	 M39.4,39.5l-0.5-0.8L38,39.2l0.6,0.8L39.4,39.5z M45.8,35.3l0.5,0.8l0.5-0.3v-0.5H45.8z M45.8,32.4h1v-1.8l-1.5,1L45.8,32.4z
	 M40.7,35.8l-0.8,0.6l0.6,0.8l0.8-0.5L40.7,35.8z M39.4,33.9L38.9,33L38,33.6l0.6,0.8L39.4,33.9z M45.8,29.7l0.5,0.8l0.5-0.3v-0.5
	H45.8z M45.8,26.8h1v-1.8l-1.5,1L45.8,26.8z M40.7,30.1l-0.8,0.6l0.6,0.8l0.8-0.5L40.7,30.1z M39.4,28.2l-0.5-0.8L38,28l0.6,0.8
	L39.4,28.2z M40.7,27.4l0.5,0.8l1.3-0.8l-1.3-0.8L40.7,27.4z M39.7,26.7l0.6-0.8l0,0L39.7,26.7z M32.6,25.4l-0.5-0.9l0,0L32.6,25.4z
	 M31.9,25.8l-0.6,0.8l0.5,0.4l0.6-0.3L31.9,25.8z M31.3,25.4l-0.6,0.8l0,0L31.3,25.4z M24.3,26.7l-0.6-0.8l0,0L24.3,26.7z
	 M21.6,28.4l-0.4-0.9l0,0L21.6,28.4z M19.2,30.6l-0.4,0.9l0.8,0.3l0.4-0.7L19.2,30.6z M19.2,30.6l0.4-0.9l-1-0.4l-0.3,1L19.2,30.6z
	 M19.2,30.6l0.9,0.5l0-0.1l0-0.1L19.2,30.6z M19.2,30.6l-0.9-0.5l-0.6,1.1l1.2,0.4L19.2,30.6z M19.2,30.6l0.9,0.3l0.3-1l-1-0.3
	L19.2,30.6z M18.4,32.8l-0.3,1l0.9,0.3l0.3-0.9L18.4,32.8z M18.4,32.7l0.3-1l-1.1-0.3l-0.2,1.1L18.4,32.7z M17.3,38.2l-1-0.2
	l-0.3,1.2l1.3,0L17.3,38.2z M17.4,38.2l-0.1-1l0,0L17.4,38.2z M29.7,38.2h1v-1h-1V38.2z M29.7,40.5v1h1v-1H29.7z M12.1,44.5l-1-0.3
	v0L12.1,44.5z M10.6,49.5l-1-0.3l-0.4,1.4l1.5-0.1L10.6,49.5z M22.8,49.5h1v-1h-1V49.5z M22.8,51.7v1h1v-1H22.8z M61.7,57.4
	c0-4.9-4.1-8.9-9-8.9v2c3.9,0,7,3.1,7,6.9H61.7z M61.7,60.7v-3.4h-2v3.4H61.7z M61.7,63v-2.3h-2V63H61.7z M3.3,64h57.4v-2H3.3V64z
	 M2.3,60.7l0,2.3l2,0l0-2.3L2.3,60.7z M2.3,57.4v3.4h2v-3.4H2.3z M7.5,49.3c-3.1,1.4-5.2,4.5-5.2,8.1h2c0-2.7,1.7-5.1,4.1-6.2
	L7.5,49.3z M9,43.5l-2,6.4l1.9,0.6l2-6.4L9,43.5z M9.2,42.9C9.1,43.1,9,43.3,9,43.5l1.9,0.6c0-0.1,0.1-0.2,0.2-0.4L9.2,42.9z
	 M9.3,42.7c0,0.1,0,0.1-0.1,0.2l1.8,0.8c0-0.1,0.1-0.1,0.1-0.2L9.3,42.7z M9.2,25.2v17.9h2V25.2H9.2z M12.9,19.3
	c-2.3,1.1-3.7,3.4-3.7,5.9h2c0-1.8,1-3.3,2.6-4.1L12.9,19.3z M14.3,18.6l-1.4,0.7l0.9,1.8l1.4-0.7L14.3,18.6z M13.8,16.8v2.7h2v-2.7
	H13.8z M12.5,17.8h2.3v-2h-2.3V17.8z M11.5,13.4v3.4h2v-3.4H11.5z M15.9,9c-2.4,0-4.4,1.9-4.4,4.4h2c0-1.3,1.1-2.4,2.4-2.4V9z
	 M22.8,9h-6.9v2h6.9V9z M27.3,13.4c0-2.4-2-4.4-4.4-4.4v2c1.4,0,2.4,1.1,2.4,2.4H27.3z M27.3,16.8v-3.4h-2v3.4H27.3z M24,17.8h2.3
	v-2H24V17.8z M25,19.5v-2.7h-2v2.7H25z M25.8,19.3l-1.4-0.7l-0.9,1.8l1.4,0.7L25.8,19.3z M28.7,22.1c-0.7-1.2-1.6-2.2-2.9-2.8
	l-0.9,1.8c0.9,0.4,1.6,1.1,2,2L28.7,22.1z M29.1,21.4c-0.5,0-1,0.1-1.5,0.1l0.4,2c0.4-0.1,0.7-0.1,1.1-0.1V21.4z M32.6,22.3
	c-1-0.6-2.2-0.9-3.4-0.9v2c0.9,0,1.7,0.2,2.5,0.6L32.6,22.3z M34.9,21.4c-1.2,0-2.5,0.5-3.2,0.8l0.8,1.8c0.7-0.3,1.6-0.7,2.4-0.7
	V21.4z M41.5,24c-1.7-1.1-3.8-2.6-6.7-2.6v2c2.2,0,3.8,1.1,5.5,2.3L41.5,24z M41.5,24.1L41.5,24.1l-1.1,1.6l0,0L41.5,24.1z
	 M43.3,25.1c-0.6-0.3-1.1-0.7-1.7-1.1l-1.1,1.7c0.6,0.4,1.3,0.8,1.9,1.2L43.3,25.1z M45.2,23.2l-3,1.9l1.1,1.7l3-1.9L45.2,23.2z
	 M44.8,21.3v2.8h2v-2.8H44.8z M41.5,22.3h4.3v-2h-4.3V22.3z M35.6,16.5c0,3.2,2.6,5.8,5.9,5.8v-2c-2.1,0-3.9-1.7-3.9-3.8H35.6z
	 M36.2,13.9c-0.4,0.8-0.6,1.7-0.6,2.6h2c0-0.6,0.1-1.2,0.4-1.7L36.2,13.9z M41.7,3.2l-5.5,10.7l1.8,0.9l5.5-10.7L41.7,3.2z M46.9,0
	c-2.2,0-4.2,1.2-5.2,3.2l1.8,0.9c0.7-1.3,2-2.1,3.5-2.1V0z M52.2,3.2c-1-2-3-3.2-5.2-3.2v2c1.5,0,2.8,0.8,3.5,2.1L52.2,3.2z
	 M57.6,13.9L52.2,3.2l-1.8,0.9l5.5,10.7L57.6,13.9z M58.3,16.5c0-0.9-0.2-1.8-0.6-2.6l-1.8,0.9c0.3,0.5,0.4,1.1,0.4,1.7H58.3z
	 M52.4,22.3c3.2,0,5.9-2.6,5.9-5.8h-2c0,2.1-1.7,3.8-3.9,3.8V22.3z M48.1,22.3h4.3v-2h-4.3V22.3z M49.1,24.1v-2.8h-2v2.8H49.1z
	 M55,27.4l-6.4-4.2l-1.1,1.7l6.4,4.2L55,27.4z M54,30.7l1.3-1.9l-1.7-1.1l-1.3,1.9L54,30.7z M47.5,27.6l5.1,3.3l1.1-1.7l-5.1-3.3
	L47.5,27.6z M49.1,29.7v-2.9h-2v2.9H49.1z M55,33l-6.4-4.2l-1.1,1.7l6.4,4.2L55,33z M54,36.3l1.3-1.9l-1.7-1.1l-1.3,1.9L54,36.3z
	 M47.5,33.3l5.1,3.3l1.1-1.7l-5.1-3.3L47.5,33.3z M49.1,35.3v-2.9h-2v2.9H49.1z M55,38.7l-6.4-4.2l-1.1,1.7l6.4,4.2L55,38.7z M54,42
	l1.3-1.9L53.6,39l-1.3,1.9L54,42z M47.5,38.9l5.1,3.3l1.1-1.7l-5.1-3.3L47.5,38.9z M49.1,41v-2.9h-2V41H49.1z M55,44.3l-6.4-4.2
	l-1.1,1.7l6.4,4.2L55,44.3z M54,47.6l1.3-1.9l-1.7-1.1l-1.3,1.9L54,47.6z M47.5,44.5l5.1,3.3l1.1-1.7l-5.1-3.3L47.5,44.5z
	 M49.1,47.3v-3.6h-2v3.6H49.1z M53.2,48.8c-1.3-1.3-3.1-2.2-5-2.4l-0.3,2c1.5,0.2,2.9,0.9,3.9,1.9L53.2,48.8z M52.7,48.5h-0.1v2h0.1
	V48.5z M39.9,16.5c0-0.2,0.1-0.5,0.2-0.7l-1.8-0.9c-0.2,0.5-0.4,1-0.4,1.6H39.9z M41.5,18c-0.9,0-1.6-0.7-1.6-1.5h-2
	c0,2,1.6,3.5,3.6,3.5V18z M52.4,18H41.5v2h10.9V18z M54,16.5c0,0.8-0.7,1.5-1.6,1.5v2c2,0,3.6-1.6,3.6-3.5H54z M53.8,15.8
	c0.1,0.2,0.2,0.4,0.2,0.7h2c0-0.5-0.1-1.1-0.4-1.6L53.8,15.8z M48.3,5.1l5.5,10.7l1.8-0.9L50.1,4.2L48.3,5.1z M47.6,4.4
	c0.3,0.2,0.6,0.4,0.7,0.7l1.8-0.9c-0.4-0.7-0.9-1.2-1.6-1.5L47.6,4.4z M45.8,4.5h2.3v-2h-2.3V4.5z M45.5,5.1
	c0.1-0.3,0.4-0.5,0.7-0.7l-0.9-1.8c-0.6,0.3-1.2,0.8-1.6,1.5L45.5,5.1z M40.1,15.8l5.5-10.7l-1.8-0.9l-5.5,10.7L40.1,15.8z
	 M51.7,55.1v1h2v-1H51.7z M47.9,50.6c2.2,0.4,3.8,2.3,3.8,4.5h2c0-3.2-2.3-5.9-5.4-6.5L47.9,50.6z M49.1,50.6v-1h-2v1H49.1z
	 M52.9,55.1c-2.2-0.4-3.8-2.3-3.8-4.5h-2c0,3.2,2.3,5.9,5.4,6.5L52.9,55.1z M44.8,50.6c0,2.2-1.6,4.1-3.8,4.5l0.4,2
	c3.1-0.6,5.4-3.3,5.4-6.5H44.8z M44.8,49.6v1h2v-1H44.8z M42.2,55.1c0-2.2,1.6-4.1,3.8-4.5l-0.4-2c-3.1,0.6-5.4,3.3-5.4,6.5H42.2z
	 M42.2,56.1v-1h-2v1H42.2z M15.8,13.4c0-0.1,0.1-0.1,0.1-0.1v-2c-1.2,0-2.1,0.9-2.1,2.1H15.8z M15.8,14.5v-1.1h-2v1.1H15.8z
	 M24,13.5h-9.2v2H24V13.5z M23,13.4v1.1h2v-1.1H23z M22.8,13.3c0.1,0,0.1,0.1,0.1,0.1h2c0-1.2-1-2.1-2.1-2.1V13.3z M15.9,13.3h6.9
	v-2h-6.9V13.3z M14.8,23.1l2.7-1.3L16.6,20l-2.7,1.3L14.8,23.1z M13.5,25.2c0-0.9,0.5-1.7,1.3-2.1l-0.9-1.8
	c-1.5,0.7-2.5,2.2-2.5,3.9H13.5z M13.5,40V25.2h-2V40H13.5z M14.6,37.7c-1,0.4-1.9,0.9-2.7,1.5l1.3,1.5c0.6-0.5,1.3-0.9,2.1-1.2
	L14.6,37.7z M15.2,31.9l-1.3,6.6l2,0.4l1.3-6.6L15.2,31.9z M20.2,25.4c-2.5,1.2-4.4,3.6-5,6.4l2,0.4c0.5-2.2,1.9-4.1,3.9-5
	L20.2,25.4z M22.5,24c-0.8,0.6-1.5,1-2.2,1.4l0.9,1.8c0.9-0.4,1.7-1,2.5-1.5L22.5,24z M25.2,22.4c-1,0.5-1.9,1.1-2.7,1.7l1.1,1.7
	c0.8-0.6,1.6-1.1,2.5-1.5L25.2,22.4z M23.9,23.1c0.4,0.2,0.7,0.4,0.9,0.8l1.6-1.2c-0.4-0.6-1-1.1-1.7-1.4L23.9,23.1z M21.2,21.8
	l2.7,1.3l0.9-1.8L22.1,20L21.2,21.8z M20.7,16.8v4.1h2v-4.1H20.7z M17.1,17.8h4.6v-2h-4.6V17.8z M18.1,20.9v-4.1h-2v4.1H18.1z
	 M6.6,57.4c0-2.5,2.1-4.6,4.7-4.6v-2c-3.7,0-6.7,3-6.7,6.6H6.6z M6.6,60.7v-3.4h-2v3.4H6.6z M58.4,59.7H5.6v2h52.8V59.7z M57.4,57.4
	v3.4h2v-3.4H57.4z M54,52.9c2,0.6,3.4,2.3,3.4,4.4h2c0-3-2.1-5.5-4.8-6.3L54,52.9z M56,55.1c0-1.3-0.3-2.4-0.7-3.5l-1.8,0.8
	c0.4,0.8,0.6,1.8,0.6,2.7H56z M56,58.5v-3.4h-2v3.4H56z M53.8,59.5H55v-2h-1.1V59.5z M46.1,55.2c1.6,2.6,4.5,4.3,7.7,4.3v-2
	c-2.6,0-4.8-1.4-6-3.4L46.1,55.2z M40,59.5c3.3,0,6.2-1.7,7.7-4.3l-1.7-1c-1.2,2-3.5,3.4-6,3.4V59.5z M38.9,59.5H40v-2h-1.1V59.5z
	 M37.9,55.1v3.4h2v-3.4H37.9z M45.6,46.3c-4.4,0.6-7.7,4.3-7.7,8.8h2c0-3.4,2.6-6.3,6-6.8L45.6,46.3z M44.8,43.7v3.6h2v-3.6H44.8z
	 M41.2,47.9l5.1-3.3l-1.1-1.7l-5.1,3.3L41.2,47.9z M38.6,45.7l1.3,1.9l1.7-1.1l-1.3-1.9L38.6,45.7z M45.2,40.1l-6.4,4.2l1.1,1.7
	l6.4-4.2L45.2,40.1z M44.8,38.1V41h2v-2.9H44.8z M41.2,42.2l5.1-3.3l-1.1-1.7l-5.1,3.3L41.2,42.2z M38.6,40.1l1.3,1.9l1.7-1.1
	L40.2,39L38.6,40.1z M45.2,34.5l-6.4,4.2l1.1,1.7l6.4-4.2L45.2,34.5z M44.8,32.4v2.9h2v-2.9H44.8z M41.2,36.6l5.1-3.3l-1.1-1.7
	l-5.1,3.3L41.2,36.6z M38.6,34.4l1.3,1.9l1.7-1.1l-1.3-1.9L38.6,34.4z M45.2,28.9L38.9,33l1.1,1.7l6.4-4.2L45.2,28.9z M44.8,26.8
	v2.9h2v-2.9H44.8z M41.2,31l5.1-3.3l-1.1-1.7l-5.1,3.3L41.2,31z M38.6,28.8l1.3,1.9l1.7-1.1l-1.3-1.9L38.6,28.8z M40.1,26.6
	l-1.3,0.8l1.1,1.7l1.3-0.8L40.1,26.6z M39.1,27.5c0.3,0.2,0.7,0.5,1,0.7l1.1-1.7c-0.3-0.2-0.7-0.4-1-0.7L39.1,27.5z M34.9,25.7
	c1.4,0,2.6,0.8,4.2,1.9l1.1-1.7c-1.5-1-3.2-2.2-5.4-2.2V25.7z M33.1,26.3c0.2-0.1,0.6-0.3,0.9-0.4c0.4-0.1,0.7-0.2,0.9-0.2v-2
	c-0.5,0-1.1,0.2-1.5,0.3c-0.5,0.2-0.9,0.4-1.2,0.6L33.1,26.3z M32.4,26.7l0.7-0.4l-1-1.7l-0.7,0.4L32.4,26.7z M30.7,26.2l0.6,0.4
	l1.2-1.6l-0.6-0.4L30.7,26.2z M29.1,25.7c0.7,0,1.1,0.2,1.6,0.5l1.2-1.6c-0.8-0.6-1.7-0.9-2.8-0.9V25.7z M24.9,27.6
	c1.6-1.1,2.8-1.9,4.2-1.9v-2c-2.2,0-3.9,1.2-5.4,2.2L24.9,27.6z M22.1,29.3c1.1-0.5,2-1.1,2.8-1.7l-1.1-1.7
	c-0.9,0.6-1.7,1.1-2.6,1.6L22.1,29.3z M20.1,31.1c0.5-0.8,1.2-1.5,2-1.8l-0.9-1.8C20,28,19,29,18.4,30.1L20.1,31.1z M18.9,31.5
	L18.9,31.5l0.7-1.9l0,0L18.9,31.5z M20.2,30.9L20.2,30.9l-1.9-0.7l0,0L20.2,30.9z M20.1,31.1C20.1,31.1,20.1,31.1,20.1,31.1l-1.7-1
	c0,0,0,0,0,0L20.1,31.1z M19.5,29.7C19.5,29.7,19.5,29.7,19.5,29.7l-0.6,1.9c0,0,0,0,0,0L19.5,29.7z M19.4,33.1l0.8-2.1l-1.9-0.7
	l-0.8,2.1L19.4,33.1z M18.1,33.7C18.1,33.7,18.1,33.7,18.1,33.7l0.6-1.9c0,0,0,0,0,0L18.1,33.7z M18.3,38.4l1.1-5.5l-2-0.4L16.3,38
	L18.3,38.4z M17.3,37.2C17.3,37.2,17.3,37.2,17.3,37.2C17.3,37.2,17.3,37.2,17.3,37.2l0,2c0.1,0,0.2,0,0.2,0L17.3,37.2z M17.6,37.2
	c-0.1,0-0.2,0-0.3,0l0.2,2c0,0,0,0,0,0c0,0,0,0,0,0c0,0,0,0,0,0V37.2z M29.7,37.2H17.6v2h12.1V37.2z M30.7,40.5v-2.3h-2v2.3H30.7z
	 M17.6,41.5h12.1v-2H17.6V41.5z M13.1,44.8c0.6-2,2.4-3.3,4.5-3.3v-2c-3,0-5.6,1.9-6.5,4.7L13.1,44.8z M11.5,49.8l1.5-5l-1.9-0.6
	l-1.5,5L11.5,49.8z M11.3,48.5c-0.3,0-0.6,0-0.9,0l0.2,2c0.2,0,0.5,0,0.7,0V48.5z M22.8,48.5H11.3v2h11.5V48.5z M23.8,51.7v-2.3h-2
	v2.3H23.8z M11.3,52.7h11.5v-2H11.3V52.7z"/>
</svg>
